<svg width="826" height="181" viewBox="0 0 826 181" fill="none" xmlns="http://www.w3.org/2000/svg">
<path d="M19.9219 179.766C18.3594 179.766 15.9375 179.531 12.6562 179.062C10.1562 176.406 7.89062 172.812 5.85938 168.281C3.98438 163.594 2.5 158.672 1.40625 153.516C0.46875 148.203 0 142.969 0 137.812C0.15625 132.5 1.09375 127.812 2.8125 123.75C2.8125 123.594 3.51562 121.719 4.92188 118.125C6.48438 114.531 8.4375 110 10.7812 104.531C13.125 98.9062 15.7812 92.7344 18.75 86.0156C21.7188 79.1406 24.6875 72.4219 27.6562 65.8594C30.625 59.2969 33.4375 53.3594 36.0938 48.0469C38.9062 42.5781 41.3281 38.3594 43.3594 35.3906C44.7656 33.2031 46.0156 31.0937 47.1094 29.0625C48.3594 27.0313 49.5312 25.1563 50.625 23.4375C52.3438 20.625 53.9062 18.0469 55.3125 15.7031C56.875 13.2031 58.5156 11.0156 60.2344 9.14062C62.1094 7.10938 64.1406 5.39062 66.3281 3.98438C68.5156 2.42188 71.1719 1.09375 74.2969 0C76.1719 0.78125 77.8125 1.64062 79.2188 2.57812C80.625 3.35938 81.875 4.375 82.9688 5.625L83.6719 8.90625C83.9844 10 84.4531 10.7812 85.0781 11.25C85.8594 11.5625 86.4844 11.7188 86.9531 11.7188C88.9844 12.1875 90.7031 12.7344 92.1094 13.3594C93.6719 13.8281 95.3125 14.1406 97.0312 14.2969C97.6562 15.2344 98.2031 16.1719 98.6719 17.1094C99.2969 18.0469 99.9219 18.9062 100.547 19.6875C103.672 24.2188 106.25 28.5938 108.281 32.8125C110.312 37.0312 110.312 41.6406 108.281 46.6406L108.516 49.2188C109.297 50.3125 109.688 51.3281 109.688 52.2656C109.688 53.2031 109.531 54.5312 109.219 56.25C109.062 57.5 108.906 58.9062 108.75 60.4688C108.75 61.875 108.984 63.4375 109.453 65.1562L111.094 67.0312C113.594 68.2812 116.016 68.9062 118.359 68.9062C121.484 68.9062 124.297 68.2031 126.797 66.7969C129.297 65.3906 131.641 63.9844 133.828 62.5781C135.547 61.3281 137.109 60.3125 138.516 59.5312C140.078 58.75 141.562 58.2031 142.969 57.8906C146.25 54.7656 149.219 52.0312 151.875 49.6875C154.688 47.1875 157.578 44.6875 160.547 42.1875C166.172 37.6562 171.641 32.8125 176.953 27.6562C182.266 22.3438 186.484 15.7813 189.609 7.96875C191.328 6.875 193.281 6.32812 195.469 6.32812C197.656 6.32812 199.844 6.79688 202.031 7.73438C204.219 8.51563 206.406 9.45313 208.594 10.5469C209.062 10.8594 209.453 11.0938 209.766 11.25C210.234 11.4062 210.703 11.6406 211.172 11.9531C211.172 13.6719 211.875 15.2344 213.281 16.6406C214.062 17.2656 214.609 17.6563 214.922 17.8125C215.234 17.9687 215.547 18.125 215.859 18.2812C217.109 19.0625 218.125 19.7656 218.906 20.3906C219.844 21.0156 220.547 21.875 221.016 22.9688C222.422 27.1875 224.766 30.4688 228.047 32.8125C227.734 34.5312 227.812 36.25 228.281 37.9688C228.75 39.5312 229.297 41.0938 229.922 42.6562C230.234 43.2812 230.469 43.9062 230.625 44.5312C230.781 45 231.016 45.625 231.328 46.4062L226.172 45.9375L226.875 51.0938C227.344 53.75 227.109 56.7188 226.172 60C225.391 63.2812 224.453 65.8594 223.359 67.7344C223.672 72.4219 223.828 76.1719 223.828 78.9844C223.828 81.6406 223.672 84.1406 223.359 86.4844C223.047 88.8281 222.5 91.0938 221.719 93.2812C221.094 95.3125 220.234 97.5 219.141 99.8438C219.766 111.719 218.359 122.578 214.922 132.422C211.641 142.266 208.047 151.484 204.141 160.078C203.672 161.172 203.203 162.188 202.734 163.125C202.266 164.062 201.875 165 201.562 165.938C199.844 166.406 198.281 166.953 196.875 167.578C195.469 168.203 194.141 168.906 192.891 169.688C191.172 170.781 189.453 171.719 187.734 172.5C186.016 173.125 184.219 173.438 182.344 173.438C174.844 167.969 170.938 158.516 170.625 145.078C170.469 131.641 173.359 114.531 179.297 93.75C180.391 92.9688 180.859 91.7969 180.703 90.2344V87.6562L178.359 87.4219C177.578 87.4219 176.875 87.5 176.25 87.6562C175.625 87.8125 175.156 88.5156 174.844 89.7656C169.844 93.3594 164.375 97.1094 158.438 101.016C152.656 104.766 146.641 108.281 140.391 111.562C134.141 114.688 127.734 117.344 121.172 119.531C114.766 121.562 108.516 122.578 102.422 122.578C86.7969 122.578 75 114.609 67.0312 98.6719L64.9219 94.4531L62.5781 98.2031C62.1094 98.9844 61.25 100.547 60 102.891C58.9062 105.078 57.7344 107.656 56.4844 110.625C55.3906 113.594 54.375 116.641 53.4375 119.766C52.6562 122.891 52.4219 125.625 52.7344 127.969C50.8594 129.688 48.9844 131.641 47.1094 133.828C45.3906 136.016 44.1406 138.516 43.3594 141.328C43.0469 142.109 42.9688 142.891 43.125 143.672C43.2812 144.297 43.5156 145 43.8281 145.781C43.6719 146.875 43.3594 147.656 42.8906 148.125C42.4219 148.594 41.875 149.062 41.25 149.531C40.4688 150.312 39.6875 151.172 38.9062 152.109C38.125 152.891 37.4219 153.828 36.7969 154.922C36.4844 155.859 36.25 156.875 36.0938 157.969C35.9375 158.906 35.7812 159.766 35.625 160.547C35.625 162.266 35.3906 163.438 34.9219 164.062C33.3594 167.344 31.9531 170.078 30.7031 172.266C29.6094 174.297 28.5156 175.859 27.4219 176.953C26.3281 178.047 25.1562 178.75 23.9062 179.062C22.8125 179.531 21.4844 179.766 19.9219 179.766ZM369.141 106.172C368.984 108.047 369.141 109.844 369.609 111.562C370.078 113.281 370.625 115 371.25 116.719C372.031 118.281 372.734 119.922 373.359 121.641C373.984 123.359 374.453 125.078 374.766 126.797C375.078 128.984 375.078 131.406 374.766 134.062C374.453 136.562 373.906 139.062 373.125 141.562C372.344 143.906 371.328 146.094 370.078 148.125C368.828 150 367.344 151.406 365.625 152.344C363.438 155.156 360.781 157.344 357.656 158.906C354.531 160.469 351.641 162.344 348.984 164.531C347.266 165.625 345.312 166.406 343.125 166.875C341.094 167.344 338.984 167.812 336.797 168.281C335.078 169.219 333.047 170.234 330.703 171.328C328.359 172.266 325.938 173.203 323.438 174.141C320.938 174.922 318.438 175.547 315.938 176.016C313.438 176.328 311.25 176.406 309.375 176.25C304.688 177.969 300.078 179.062 295.547 179.531C291.172 180.156 286.016 179.844 280.078 178.594C274.453 179.375 269.219 179.141 264.375 177.891C259.688 176.641 255.469 174.688 251.719 172.031C248.125 169.219 244.922 165.938 242.109 162.188C239.453 158.281 237.266 154.219 235.547 150C234.297 141.094 234.609 133.047 236.484 125.859C238.359 118.516 241.016 111.797 244.453 105.703C248.047 99.4531 252.109 93.75 256.641 88.5938C261.172 83.2812 265.547 78.125 269.766 73.125C270.703 73.4375 271.406 73.4375 271.875 73.125C272.5 72.6562 273.047 72.1094 273.516 71.4844C273.984 70.7031 274.453 70 274.922 69.375C275.547 68.75 276.25 68.3594 277.031 68.2031C278.125 65.8594 279.688 64.1406 281.719 63.0469C283.906 61.7969 285.625 60.0781 286.875 57.8906C288.281 57.5781 289.453 57.1094 290.391 56.4844C291.328 55.8594 292.188 55.1562 292.969 54.375C293.906 53.5938 294.844 52.8906 295.781 52.2656C296.719 51.4844 297.812 50.9375 299.062 50.625V48.0469C301.875 46.7969 303.906 45.3906 305.156 43.8281C306.562 42.1094 308.203 40.0781 310.078 37.7344C311.484 37.5781 312.578 37.5 313.359 37.5C314.297 37.5 315.625 37.3438 317.344 37.0312C318.594 34.8438 319.688 33.2031 320.625 32.1094C321.719 31.0156 323.281 29.8438 325.312 28.5938C327.188 29.5312 329.219 30.1562 331.406 30.4688C333.75 30.7813 335.781 31.7969 337.5 33.5156C337.656 35.0781 338.125 36.3281 338.906 37.2656C339.688 38.0469 340.547 38.8281 341.484 39.6094C342.422 40.2344 343.281 40.9375 344.062 41.7188C345 42.5 345.625 43.5938 345.938 45C346.562 45.1562 346.953 45.0781 347.109 44.7656C347.422 44.4531 347.891 44.375 348.516 44.5312C348.984 46.7188 349.531 48.2031 350.156 48.9844C350.781 49.6094 351.406 50.9375 352.031 52.9688C351.25 54.5312 350.625 56.1719 350.156 57.8906C349.844 59.4531 348.906 60.625 347.344 61.4062C347.188 62.5 347.5 63.125 348.281 63.2812C349.062 63.2812 349.531 63.6719 349.688 64.4531C349.844 65.8594 349.609 66.875 348.984 67.5C352.734 73.5938 356.094 80.0781 359.062 86.9531C362.031 93.6719 365.391 100.078 369.141 106.172ZM339.844 128.438C340.469 126.719 341.25 125.312 342.188 124.219C343.281 123.125 343.906 121.484 344.062 119.297C343.281 118.047 342.812 117.109 342.656 116.484C342.5 115.703 342.422 114.531 342.422 112.969C338.984 108.125 336.016 102.969 333.516 97.5C331.016 91.875 328.203 86.6406 325.078 81.7969C324.766 82.4219 324.219 83.0469 323.438 83.6719C322.656 84.2969 321.797 84.1406 320.859 83.2031C320.547 84.4531 320 85.3906 319.219 86.0156C318.438 86.4844 317.578 86.7188 316.641 86.7188C315.703 86.5625 314.688 86.3281 313.594 86.0156C312.656 85.5469 311.797 85 311.016 84.375C306.484 87.9688 301.953 91.4844 297.422 94.9219C292.891 98.3594 288.828 102.344 285.234 106.875C284.609 107.188 284.219 107.344 284.062 107.344C283.906 107.188 283.438 107.266 282.656 107.578C281.406 110.547 279.844 113.281 277.969 115.781C276.25 118.125 274.531 120.547 272.812 123.047C271.094 125.547 269.609 128.203 268.359 131.016C267.109 133.828 266.406 137.109 266.25 140.859C268.906 143.047 272.031 144.375 275.625 144.844C279.219 145.312 282.891 145.391 286.641 145.078C290.547 144.766 294.297 144.297 297.891 143.672C301.641 142.891 305.078 142.5 308.203 142.5C314.766 140.938 320.391 138.906 325.078 136.406C329.766 133.75 334.688 131.094 339.844 128.438ZM382.5 71.0156C383.594 67.7344 385.312 64.9219 387.656 62.5781C390.156 60.2344 392.812 58.2812 395.625 56.7188C398.594 55 401.641 53.5938 404.766 52.5C407.891 51.4062 410.859 50.4688 413.672 49.6875C419.922 47.0312 426.562 44.5312 433.594 42.1875C440.781 39.6875 448.047 37.5 455.391 35.625C462.891 33.75 470.547 32.5781 478.359 32.1094C486.172 31.4844 494.375 32.4219 502.969 34.9219C503.438 36.4844 504.141 37.9688 505.078 39.375C506.016 40.7812 506.953 42.1875 507.891 43.5938C508.984 45 509.922 46.4062 510.703 47.8125C511.484 49.0625 511.953 50.3906 512.109 51.7969C513.672 53.2031 514.922 54.7656 515.859 56.4844C516.797 58.0469 516.953 60.1562 516.328 62.8125C514.766 64.0625 513.203 65.2344 511.641 66.3281C510.234 67.2656 508.672 68.125 506.953 68.9062C501.172 67.5 495.312 67.0312 489.375 67.5C483.438 67.9688 478.125 68.3594 473.438 68.6719C472.031 67.2656 470.312 66.5625 468.281 66.5625C466.406 66.5625 464.375 66.875 462.188 67.5C460.156 68.125 458.047 68.75 455.859 69.375C453.828 70 451.875 70.1562 450 69.8438C448.438 71.0938 446.484 71.9531 444.141 72.4219C441.953 72.7344 439.531 73.0469 436.875 73.3594C436.719 74.1406 436.875 74.6875 437.344 75C437.812 75.1562 437.891 75.625 437.578 76.4062C438.516 77.5 439.688 78.2812 441.094 78.75C442.656 79.2188 444.219 79.6875 445.781 80.1562C447.5 80.625 448.984 81.25 450.234 82.0312C451.484 82.6562 452.344 83.75 452.812 85.3125C455.156 85.3125 457.188 85.8594 458.906 86.9531C460.625 88.0469 462.031 89.375 463.125 90.9375C464.219 92.5 465 94.2188 465.469 96.0938C466.094 97.8125 466.406 99.375 466.406 100.781C466.875 102.031 467.422 102.578 468.047 102.422C468.672 102.266 469.375 102.578 470.156 103.359C470.625 105.391 471.797 107.5 473.672 109.688C475.547 111.719 477.031 113.984 478.125 116.484C478.438 120.391 478.672 123.906 478.828 127.031C478.984 130 478.438 133.047 477.188 136.172C474.844 141.953 471.562 147.109 467.344 151.641C463.281 156.172 458.594 160.234 453.281 163.828C448.125 167.266 442.578 170.234 436.641 172.734C430.703 175.234 424.922 177.344 419.297 179.062C418.672 178.906 418.047 178.906 417.422 179.062C416.797 179.219 416.641 178.828 416.953 177.891C415.703 178.984 414.297 179.688 412.734 180C411.328 180.312 409.766 180.391 408.047 180.234C406.328 180.234 404.531 180.156 402.656 180C400.938 179.844 399.297 179.922 397.734 180.234C396.641 179.141 395.625 178.047 394.688 176.953C393.906 176.016 393.281 174.766 392.812 173.203C392.031 173.203 391.641 172.812 391.641 172.031C391.797 171.25 391.562 170.859 390.938 170.859C391.875 169.297 392.266 168.438 392.109 168.281C392.109 167.969 391.875 167.734 391.406 167.578C391.094 167.422 390.781 167.266 390.469 167.109C390.156 166.797 390.078 166.406 390.234 165.938C390.859 164.688 391.094 163.281 390.938 161.719C390.781 160 390.625 158.281 390.469 156.562C390.312 154.844 390.391 153.203 390.703 151.641C391.172 150.078 392.344 148.828 394.219 147.891C399.531 148.516 404.531 148.359 409.219 147.422C414.062 146.328 418.594 144.844 422.812 142.969C427.031 141.094 431.016 139.062 434.766 136.875C438.672 134.688 442.5 132.734 446.25 131.016C446.719 129.609 447.344 128.438 448.125 127.5C449.062 126.562 450 125.703 450.938 124.922C451.875 124.141 452.734 123.281 453.516 122.344C454.297 121.406 454.844 120.234 455.156 118.828C455.312 117.734 455 117.109 454.219 116.953C453.594 116.641 453.281 116.016 453.281 115.078L450.703 114.375C447.734 112.656 444.375 111.25 440.625 110.156C436.875 108.906 433.672 107.578 431.016 106.172C429.297 107.109 427.656 107.344 426.094 106.875C424.688 106.406 422.812 105.938 420.469 105.469C415.156 105.156 410 104.609 405 103.828C400.156 103.047 395.469 101.641 390.938 99.6094C390.625 98.8281 390.234 98.125 389.766 97.5C389.297 96.875 388.438 96.7188 387.188 97.0312C386.25 95.7812 385.312 94.6094 384.375 93.5156C383.438 92.2656 382.578 90.9375 381.797 89.5312C382.109 87.6562 382.344 86.0938 382.5 84.8438C382.656 83.4375 382.188 82.1094 381.094 80.8594C381.719 78.8281 382.188 77.1875 382.5 75.9375C382.812 74.6875 382.812 73.0469 382.5 71.0156ZM614.062 156.797C613.125 159.453 611.719 162.188 609.844 165C608.125 167.656 606.016 170.078 603.516 172.266C601.172 174.297 598.516 176.016 595.547 177.422C592.578 178.828 589.453 179.609 586.172 179.766C584.141 179.297 582.734 178.75 581.953 178.125C581.328 177.656 580.625 177.188 579.844 176.719C579.375 176.406 578.906 176.172 578.438 176.016C578.125 175.703 577.812 175.469 577.5 175.312L574.688 174.141L575.625 171.094C575.938 169.844 575.859 168.906 575.391 168.281C574.922 167.5 573.984 166.484 572.578 165.234C572.109 164.766 571.641 164.297 571.172 163.828C570.703 163.359 570.312 162.891 570 162.422L566.016 157.969L572.344 156.328C576.25 155.234 578.828 153.828 580.078 152.109C581.484 150.391 582.031 147.5 581.719 143.438C578.594 142.812 575.938 142.734 573.75 143.203C571.719 143.672 569.609 144.219 567.422 144.844C564.609 145.625 561.719 146.328 558.75 146.953C555.938 147.422 552.812 147.656 549.375 147.656C548.125 147.656 546.953 147.656 545.859 147.656C544.766 147.5 543.594 147.344 542.344 147.188L540 146.719C539.688 145 539.375 144.062 539.062 143.906C538.75 143.594 538.438 143.281 538.125 142.969C537.344 142.188 536.484 141.172 535.547 139.922C534.766 138.516 534.609 136.797 535.078 134.766C534.297 133.359 533.828 131.953 533.672 130.547C532.734 132.422 532.031 134.375 531.562 136.406L530.625 138.75L528.281 139.219C527.969 139.375 527.734 139.766 527.578 140.391C527.422 140.859 527.344 141.25 527.344 141.562L526.172 145.547C525.859 145.859 525.547 146.172 525.234 146.484C524.922 146.641 524.609 146.875 524.297 147.188C523.984 148.594 523.594 150 523.125 151.406C522.656 152.812 522.188 154.141 521.719 155.391C520.938 157.422 520.234 159.453 519.609 161.484C519.141 163.359 518.984 165.234 519.141 167.109L518.203 169.688C517.422 170.625 516.562 171.406 515.625 172.031C514.688 172.5 513.75 172.969 512.812 173.438C512.5 173.75 512.031 174.062 511.406 174.375C510.938 174.531 510.547 174.688 510.234 174.844L509.531 177.422L506.719 177.891C505 178.203 503.75 178.438 502.969 178.594C502.344 178.75 501.562 178.828 500.625 178.828L498.281 178.594C496.562 177.188 495.234 176.094 494.297 175.312C493.359 174.375 492.266 173.516 491.016 172.734C489.609 170.859 488.828 169.453 488.672 168.516C488.516 167.578 488.359 166.719 488.203 165.938C487.891 165 487.734 164.219 487.734 163.594C487.578 162.969 487.344 162.5 487.031 162.188L483.984 159.375L486.562 157.266L486.797 153.281C489.922 145.312 493.203 137.656 496.641 130.312C500.234 122.969 503.906 115.469 507.656 107.812C508.906 105.312 510.078 102.812 511.172 100.312C512.422 97.8125 513.672 95.3125 514.922 92.8125C514.766 92.3438 514.688 91.7969 514.688 91.1719C514.688 90.5469 514.844 89.8438 515.156 89.0625C516.875 86.4062 518.281 84.0625 519.375 82.0312C520.469 79.8438 521.562 77.6562 522.656 75.4688C523.906 72.8125 525.156 70.2344 526.406 67.7344C527.812 65.2344 529.531 62.6562 531.562 60L535.312 58.3594C535.781 58.2031 536.328 58.0469 536.953 57.8906C537.578 57.5781 538.281 57.4219 539.062 57.4219L542.578 57.8906C546.953 55.8594 550.781 53.0469 554.062 49.4531C557.344 45.7031 560.703 41.25 564.141 36.0938L566.484 32.8125L569.531 34.6875C570.312 35.1562 571.406 35.625 572.812 36.0938C574.219 36.4062 575.703 36.7969 577.266 37.2656C580.078 37.8906 582.734 38.5938 585.234 39.375C587.734 40.1562 589.766 41.3281 591.328 42.8906C592.266 45.3906 592.812 47.2656 592.969 48.5156C593.125 49.7656 593.359 51.0156 593.672 52.2656C594.141 54.9219 594.531 57.5781 594.844 60.2344C595.312 62.8906 595.625 65.8594 595.781 69.1406C596.562 71.7969 597.188 74.4531 597.656 77.1094C598.281 79.6094 598.828 82.1875 599.297 84.8438C600.078 88.5938 600.859 92.2656 601.641 95.8594C602.422 99.2969 603.438 102.578 604.688 105.703C605.938 105.703 606.719 105.781 607.031 105.938C607.812 105.625 608.594 105.391 609.375 105.234C610.312 105.078 611.328 104.922 612.422 104.766L615 104.531L615.938 106.875C616.094 107.656 616.875 108.438 618.281 109.219C620.312 109.375 621.797 109.844 622.734 110.625C623.672 111.25 624.531 111.953 625.312 112.734C625.938 113.359 626.562 113.828 627.188 114.141L630.703 115.547L628.828 119.062C627.266 121.875 625 124.609 622.031 127.266C619.219 129.766 616.016 131.875 612.422 133.594C612.578 134.531 612.656 135.469 612.656 136.406C612.812 137.188 613.047 138.047 613.359 138.984C613.828 141.641 614.219 144.375 614.531 147.188C614.844 150 614.844 152.891 614.531 155.859L614.062 156.797ZM546.328 116.25C551.016 115.938 555.234 115.625 558.984 115.312C562.891 114.844 567.188 114.141 571.875 113.203C570.781 108.516 569.609 103.672 568.359 98.6719C567.109 93.5156 565.781 88.4375 564.375 83.4375L562.969 85.7812C559.844 89.0625 556.797 92.7344 553.828 96.7969C551.016 100.859 548.594 104.688 546.562 108.281C545.625 109.688 544.688 111.094 543.75 112.5C542.812 113.906 541.953 115.312 541.172 116.719C542.109 116.562 542.969 116.484 543.75 116.484C544.688 116.484 545.547 116.406 546.328 116.25ZM679.219 160.078C680 164.766 679.688 168.438 678.281 171.094C677.031 173.75 675.156 175.703 672.656 176.953C670.312 178.359 667.578 179.141 664.453 179.297C661.328 179.453 658.359 179.297 655.547 178.828C653.984 176.641 652.578 173.906 651.328 170.625C650.078 167.344 648.906 163.984 647.812 160.547C646.719 156.953 645.703 153.438 644.766 150C643.984 146.562 643.281 143.516 642.656 140.859C643.438 138.984 643.906 136.875 644.062 134.531C644.375 132.031 644.531 129.531 644.531 127.031C644.688 124.531 644.766 122.031 644.766 119.531C644.922 116.875 645.156 114.375 645.469 112.031C646.562 105.469 648.125 99.2188 650.156 93.2812C652.344 87.3438 654.062 81.1719 655.312 74.7656C655.625 73.3594 655.469 72.0312 654.844 70.7812C654.375 69.5312 654.297 68.3594 654.609 67.2656C654.766 66.6406 655.234 66.25 656.016 66.0938C656.797 65.7812 657.266 65.2344 657.422 64.4531C657.891 62.7344 657.969 61.3281 657.656 60.2344C657.5 59.1406 657.812 57.8125 658.594 56.25C659.375 55 660.312 53.2031 661.406 50.8594C662.656 48.3594 663.125 45.7812 662.812 43.125C664.219 42.1875 665.547 41.0938 666.797 39.8438C668.047 38.5938 669.297 37.5 670.547 36.5625C671.953 35.4688 673.438 34.5312 675 33.75C676.719 32.9687 678.75 32.5781 681.094 32.5781C682.344 34.1406 683.125 35.8594 683.438 37.7344C683.906 39.6094 684.297 41.4844 684.609 43.3594C685.078 45.2344 685.703 47.0312 686.484 48.75C687.266 50.3125 688.594 51.5625 690.469 52.5C690.469 53.75 690.469 55.3125 690.469 57.1875C690.469 59.0625 690.547 60.9375 690.703 62.8125C690.859 64.5312 691.172 66.1719 691.641 67.7344C692.266 69.1406 693.203 70.0781 694.453 70.5469C691.641 78.0469 688.984 85.4688 686.484 92.8125C684.141 100.156 682.188 107.578 680.625 115.078C679.062 122.422 678.047 129.844 677.578 137.344C677.266 144.844 677.812 152.422 679.219 160.078ZM803.906 176.953C801.406 177.109 798.281 177.031 794.531 176.719C790.938 176.406 787.578 176.953 784.453 178.359C776.172 178.047 767.734 177.031 759.141 175.312C750.547 173.594 742.656 171.484 735.469 168.984C733.906 167.266 732.344 165.703 730.781 164.297C729.219 162.734 727.109 161.641 724.453 161.016C720.703 158.047 717.656 154.453 715.312 150.234C712.969 145.859 711.094 141.25 709.688 136.406C708.281 131.562 707.344 126.641 706.875 121.641C706.406 116.484 706.25 111.562 706.406 106.875C708.75 99.8438 712.031 93.8281 716.25 88.8281C720.625 83.6719 725.078 78.5938 729.609 73.5938C731.641 72.6562 733.125 71.7188 734.062 70.7812C735.156 69.6875 736.25 68.75 737.344 67.9688C738.594 67.0312 739.766 66.1719 740.859 65.3906C742.109 64.4531 743.203 63.3594 744.141 62.1094C747.422 61.3281 750.234 60.2344 752.578 58.8281C755.078 57.2656 757.5 55.7031 759.844 54.1406C762.188 52.4219 764.609 50.8594 767.109 49.4531C769.609 48.0469 772.5 46.9531 775.781 46.1719C777.031 44.7656 778.516 43.6719 780.234 42.8906C781.953 41.9531 783.672 41.0938 785.391 40.3125C787.266 39.375 788.984 38.4375 790.547 37.5C792.266 36.5625 793.594 35.3125 794.531 33.75C795.312 35 796.406 35.4688 797.812 35.1562C799.219 34.6875 800.547 34.2188 801.797 33.75C802.578 33.5938 803.203 33.75 803.672 34.2188C804.297 34.6875 804.844 35.1562 805.312 35.625C805.781 36.0938 806.172 36.4062 806.484 36.5625C806.953 36.5625 807.344 36.1719 807.656 35.3906C808.438 35.3906 808.672 35.7812 808.359 36.5625C808.047 37.3438 807.812 37.8906 807.656 38.2031C808.906 38.0469 809.922 38.3594 810.703 39.1406C811.641 39.7656 813.047 40.1562 814.922 40.3125C815.547 41.0938 815.703 41.7188 815.391 42.1875C815.078 42.5 814.922 43.125 814.922 44.0625C819.609 45.4688 822.578 47.7344 823.828 50.8594C825.078 53.8281 825.156 56.9531 824.062 60.2344C822.969 63.5156 821.016 66.5625 818.203 69.375C815.391 72.1875 812.344 74.0625 809.062 75C801.562 77.0312 794.453 79.2969 787.734 81.7969C781.172 84.1406 775.781 87.6562 771.562 92.3438C767.812 93.4375 764.453 94.9219 761.484 96.7969C758.672 98.5156 755.938 100.547 753.281 102.891C750.781 105.078 748.359 107.422 746.016 109.922C743.828 112.266 741.484 114.609 738.984 116.953C739.141 119.141 738.75 120.859 737.812 122.109C737.031 123.203 736.25 124.375 735.469 125.625C735.781 127.969 736.328 130.078 737.109 131.953C737.891 133.672 738.75 135.391 739.688 137.109C750 140.234 760.938 142.188 772.5 142.969C784.219 143.75 795.938 144.219 807.656 144.375C808.75 145.938 810 147.422 811.406 148.828C812.969 150.078 814.375 151.484 815.625 153.047C816.875 154.453 817.891 156.094 818.672 157.969C819.453 159.688 819.609 161.875 819.141 164.531C816.953 166.875 814.531 169.062 811.875 171.094C809.219 172.969 806.562 174.922 803.906 176.953Z" fill="#87582C"/>
</svg>
