<svg width="1101" height="241" viewBox="0 0 1101 241" fill="none" xmlns="http://www.w3.org/2000/svg">
<path d="M26.5625 239.688C24.4792 239.688 21.25 239.375 16.875 238.75C13.5417 235.208 10.5208 230.417 7.8125 224.375C5.3125 218.125 3.33333 211.562 1.875 204.688C0.625 197.604 0 190.625 0 183.75C0.208333 176.667 1.45833 170.417 3.75 165C3.75 164.792 4.6875 162.292 6.5625 157.5C8.64583 152.708 11.25 146.667 14.375 139.375C17.5 131.875 21.0417 123.646 25 114.688C28.9583 105.521 32.9167 96.5625 36.875 87.8125C40.8333 79.0625 44.5833 71.1458 48.125 64.0625C51.875 56.7708 55.1042 51.1458 57.8125 47.1875C59.6875 44.2708 61.3542 41.4583 62.8125 38.75C64.4792 36.0417 66.0417 33.5417 67.5 31.25C69.7917 27.5 71.875 24.0625 73.75 20.9375C75.8333 17.6042 78.0208 14.6875 80.3125 12.1875C82.8125 9.47917 85.5208 7.1875 88.4375 5.3125C91.3542 3.22917 94.8958 1.45833 99.0625 0C101.562 1.04167 103.75 2.1875 105.625 3.4375C107.5 4.47917 109.167 5.83333 110.625 7.5L111.562 11.875C111.979 13.3333 112.604 14.375 113.438 15C114.479 15.4167 115.312 15.625 115.938 15.625C118.646 16.25 120.938 16.9792 122.812 17.8125C124.896 18.4375 127.083 18.8542 129.375 19.0625C130.208 20.3125 130.938 21.5625 131.562 22.8125C132.396 24.0625 133.229 25.2083 134.062 26.25C138.229 32.2917 141.667 38.125 144.375 43.75C147.083 49.375 147.083 55.5208 144.375 62.1875L144.688 65.625C145.729 67.0833 146.25 68.4375 146.25 69.6875C146.25 70.9375 146.042 72.7083 145.625 75C145.417 76.6667 145.208 78.5417 145 80.625C145 82.5 145.312 84.5833 145.938 86.875L148.125 89.375C151.458 91.0417 154.688 91.875 157.812 91.875C161.979 91.875 165.729 90.9375 169.062 89.0625C172.396 87.1875 175.521 85.3125 178.438 83.4375C180.729 81.7708 182.812 80.4167 184.688 79.375C186.771 78.3333 188.75 77.6042 190.625 77.1875C195 73.0208 198.958 69.375 202.5 66.25C206.25 62.9167 210.104 59.5833 214.062 56.25C221.562 50.2083 228.854 43.75 235.938 36.875C243.021 29.7917 248.646 21.0417 252.812 10.625C255.104 9.16667 257.708 8.4375 260.625 8.4375C263.542 8.4375 266.458 9.0625 269.375 10.3125C272.292 11.3542 275.208 12.6042 278.125 14.0625C278.75 14.4792 279.271 14.7917 279.688 15C280.312 15.2083 280.938 15.5208 281.562 15.9375C281.562 18.2292 282.5 20.3125 284.375 22.1875C285.417 23.0208 286.146 23.5417 286.562 23.75C286.979 23.9583 287.396 24.1667 287.812 24.375C289.479 25.4167 290.833 26.3542 291.875 27.1875C293.125 28.0208 294.062 29.1667 294.688 30.625C296.562 36.25 299.688 40.625 304.062 43.75C303.646 46.0417 303.75 48.3333 304.375 50.625C305 52.7083 305.729 54.7917 306.562 56.875C306.979 57.7083 307.292 58.5417 307.5 59.375C307.708 60 308.021 60.8333 308.438 61.875L301.562 61.25L302.5 68.125C303.125 71.6667 302.812 75.625 301.562 80C300.521 84.375 299.271 87.8125 297.812 90.3125C298.229 96.5625 298.438 101.562 298.438 105.312C298.438 108.854 298.229 112.188 297.812 115.312C297.396 118.438 296.667 121.458 295.625 124.375C294.792 127.083 293.646 130 292.188 133.125C293.021 148.958 291.146 163.438 286.562 176.562C282.188 189.688 277.396 201.979 272.188 213.438C271.562 214.896 270.938 216.25 270.312 217.5C269.688 218.75 269.167 220 268.75 221.25C266.458 221.875 264.375 222.604 262.5 223.438C260.625 224.271 258.854 225.208 257.188 226.25C254.896 227.708 252.604 228.958 250.312 230C248.021 230.833 245.625 231.25 243.125 231.25C233.125 223.958 227.917 211.354 227.5 193.438C227.292 175.521 231.146 152.708 239.062 125C240.521 123.958 241.146 122.396 240.938 120.312V116.875L237.812 116.562C236.771 116.562 235.833 116.667 235 116.875C234.167 117.083 233.542 118.021 233.125 119.688C226.458 124.479 219.167 129.479 211.25 134.688C203.542 139.688 195.521 144.375 187.188 148.75C178.854 152.917 170.312 156.458 161.562 159.375C153.021 162.083 144.688 163.438 136.562 163.438C115.729 163.438 100 152.812 89.375 131.562L86.5625 125.938L83.4375 130.938C82.8125 131.979 81.6667 134.062 80 137.188C78.5417 140.104 76.9792 143.542 75.3125 147.5C73.8542 151.458 72.5 155.521 71.25 159.688C70.2083 163.854 69.8958 167.5 70.3125 170.625C67.8125 172.917 65.3125 175.521 62.8125 178.438C60.5208 181.354 58.8542 184.688 57.8125 188.438C57.3958 189.479 57.2917 190.521 57.5 191.562C57.7083 192.396 58.0208 193.333 58.4375 194.375C58.2292 195.833 57.8125 196.875 57.1875 197.5C56.5625 198.125 55.8333 198.75 55 199.375C53.9583 200.417 52.9167 201.562 51.875 202.812C50.8333 203.854 49.8958 205.104 49.0625 206.562C48.6458 207.812 48.3333 209.167 48.125 210.625C47.9167 211.875 47.7083 213.021 47.5 214.062C47.5 216.354 47.1875 217.917 46.5625 218.75C44.4792 223.125 42.6042 226.771 40.9375 229.688C39.4792 232.396 38.0208 234.479 36.5625 235.938C35.1042 237.396 33.5417 238.333 31.875 238.75C30.4167 239.375 28.6458 239.688 26.5625 239.688ZM492.188 141.562C491.979 144.062 492.188 146.458 492.812 148.75C493.438 151.042 494.167 153.333 495 155.625C496.042 157.708 496.979 159.896 497.812 162.188C498.646 164.479 499.271 166.771 499.688 169.062C500.104 171.979 500.104 175.208 499.688 178.75C499.271 182.083 498.542 185.417 497.5 188.75C496.458 191.875 495.104 194.792 493.438 197.5C491.771 200 489.792 201.875 487.5 203.125C484.583 206.875 481.042 209.792 476.875 211.875C472.708 213.958 468.854 216.458 465.312 219.375C463.021 220.833 460.417 221.875 457.5 222.5C454.792 223.125 451.979 223.75 449.062 224.375C446.771 225.625 444.062 226.979 440.938 228.438C437.812 229.688 434.583 230.938 431.25 232.188C427.917 233.229 424.583 234.062 421.25 234.688C417.917 235.104 415 235.208 412.5 235C406.25 237.292 400.104 238.75 394.062 239.375C388.229 240.208 381.354 239.792 373.438 238.125C365.938 239.167 358.958 238.854 352.5 237.188C346.25 235.521 340.625 232.917 335.625 229.375C330.833 225.625 326.562 221.25 322.812 216.25C319.271 211.042 316.354 205.625 314.062 200C312.396 188.125 312.812 177.396 315.312 167.812C317.812 158.021 321.354 149.062 325.938 140.938C330.729 132.604 336.146 125 342.188 118.125C348.229 111.042 354.062 104.167 359.688 97.5C360.938 97.9167 361.875 97.9167 362.5 97.5C363.333 96.875 364.062 96.1458 364.688 95.3125C365.312 94.2708 365.938 93.3333 366.562 92.5C367.396 91.6667 368.333 91.1458 369.375 90.9375C370.833 87.8125 372.917 85.5208 375.625 84.0625C378.542 82.3958 380.833 80.1042 382.5 77.1875C384.375 76.7708 385.938 76.1458 387.188 75.3125C388.438 74.4792 389.583 73.5417 390.625 72.5C391.875 71.4583 393.125 70.5208 394.375 69.6875C395.625 68.6458 397.083 67.9167 398.75 67.5V64.0625C402.5 62.3958 405.208 60.5208 406.875 58.4375C408.75 56.1458 410.938 53.4375 413.438 50.3125C415.312 50.1042 416.771 50 417.812 50C419.062 50 420.833 49.7917 423.125 49.375C424.792 46.4583 426.25 44.2708 427.5 42.8125C428.958 41.3542 431.042 39.7917 433.75 38.125C436.25 39.375 438.958 40.2083 441.875 40.625C445 41.0417 447.708 42.3958 450 44.6875C450.208 46.7708 450.833 48.4375 451.875 49.6875C452.917 50.7292 454.062 51.7708 455.312 52.8125C456.562 53.6458 457.708 54.5833 458.75 55.625C460 56.6667 460.833 58.125 461.25 60C462.083 60.2083 462.604 60.1042 462.812 59.6875C463.229 59.2708 463.854 59.1667 464.688 59.375C465.312 62.2917 466.042 64.2708 466.875 65.3125C467.708 66.1458 468.542 67.9167 469.375 70.625C468.333 72.7083 467.5 74.8958 466.875 77.1875C466.458 79.2708 465.208 80.8333 463.125 81.875C462.917 83.3333 463.333 84.1667 464.375 84.375C465.417 84.375 466.042 84.8958 466.25 85.9375C466.458 87.8125 466.146 89.1667 465.312 90C470.312 98.125 474.792 106.771 478.75 115.938C482.708 124.896 487.188 133.438 492.188 141.562ZM453.125 171.25C453.958 168.958 455 167.083 456.25 165.625C457.708 164.167 458.542 161.979 458.75 159.062C457.708 157.396 457.083 156.146 456.875 155.312C456.667 154.271 456.562 152.708 456.562 150.625C451.979 144.167 448.021 137.292 444.688 130C441.354 122.5 437.604 115.521 433.438 109.062C433.021 109.896 432.292 110.729 431.25 111.562C430.208 112.396 429.062 112.188 427.812 110.938C427.396 112.604 426.667 113.854 425.625 114.688C424.583 115.312 423.438 115.625 422.188 115.625C420.938 115.417 419.583 115.104 418.125 114.688C416.875 114.062 415.729 113.333 414.688 112.5C408.646 117.292 402.604 121.979 396.562 126.562C390.521 131.146 385.104 136.458 380.312 142.5C379.479 142.917 378.958 143.125 378.75 143.125C378.542 142.917 377.917 143.021 376.875 143.438C375.208 147.396 373.125 151.042 370.625 154.375C368.333 157.5 366.042 160.729 363.75 164.062C361.458 167.396 359.479 170.938 357.812 174.688C356.146 178.438 355.208 182.812 355 187.812C358.542 190.729 362.708 192.5 367.5 193.125C372.292 193.75 377.188 193.854 382.188 193.438C387.396 193.021 392.396 192.396 397.188 191.562C402.188 190.521 406.771 190 410.938 190C419.688 187.917 427.188 185.208 433.438 181.875C439.688 178.333 446.25 174.792 453.125 171.25ZM510 94.6875C511.458 90.3125 513.75 86.5625 516.875 83.4375C520.208 80.3125 523.75 77.7083 527.5 75.625C531.458 73.3333 535.521 71.4583 539.688 70C543.854 68.5417 547.812 67.2917 551.562 66.25C559.896 62.7083 568.75 59.375 578.125 56.25C587.708 52.9167 597.396 50 607.188 47.5C617.188 45 627.396 43.4375 637.812 42.8125C648.229 41.9792 659.167 43.2292 670.625 46.5625C671.25 48.6458 672.188 50.625 673.438 52.5C674.688 54.375 675.938 56.25 677.188 58.125C678.646 60 679.896 61.875 680.938 63.75C681.979 65.4167 682.604 67.1875 682.812 69.0625C684.896 70.9375 686.562 73.0208 687.812 75.3125C689.062 77.3958 689.271 80.2083 688.438 83.75C686.354 85.4167 684.271 86.9792 682.188 88.4375C680.312 89.6875 678.229 90.8333 675.938 91.875C668.229 90 660.417 89.375 652.5 90C644.583 90.625 637.5 91.1458 631.25 91.5625C629.375 89.6875 627.083 88.75 624.375 88.75C621.875 88.75 619.167 89.1667 616.25 90C613.542 90.8333 610.729 91.6667 607.812 92.5C605.104 93.3333 602.5 93.5417 600 93.125C597.917 94.7917 595.312 95.9375 592.188 96.5625C589.271 96.9792 586.042 97.3958 582.5 97.8125C582.292 98.8542 582.5 99.5833 583.125 100C583.75 100.208 583.854 100.833 583.438 101.875C584.688 103.333 586.25 104.375 588.125 105C590.208 105.625 592.292 106.25 594.375 106.875C596.667 107.5 598.646 108.333 600.312 109.375C601.979 110.208 603.125 111.667 603.75 113.75C606.875 113.75 609.583 114.479 611.875 115.938C614.167 117.396 616.042 119.167 617.5 121.25C618.958 123.333 620 125.625 620.625 128.125C621.458 130.417 621.875 132.5 621.875 134.375C622.5 136.042 623.229 136.771 624.062 136.562C624.896 136.354 625.833 136.771 626.875 137.812C627.5 140.521 629.062 143.333 631.562 146.25C634.062 148.958 636.042 151.979 637.5 155.312C637.917 160.521 638.229 165.208 638.438 169.375C638.646 173.333 637.917 177.396 636.25 181.562C633.125 189.271 628.75 196.146 623.125 202.188C617.708 208.229 611.458 213.646 604.375 218.438C597.5 223.021 590.104 226.979 582.188 230.312C574.271 233.646 566.562 236.458 559.062 238.75C558.229 238.542 557.396 238.542 556.562 238.75C555.729 238.958 555.521 238.438 555.938 237.188C554.271 238.646 552.396 239.583 550.312 240C548.438 240.417 546.354 240.521 544.062 240.312C541.771 240.312 539.375 240.208 536.875 240C534.583 239.792 532.396 239.896 530.312 240.312C528.854 238.854 527.5 237.396 526.25 235.938C525.208 234.688 524.375 233.021 523.75 230.938C522.708 230.938 522.188 230.417 522.188 229.375C522.396 228.333 522.083 227.812 521.25 227.812C522.5 225.729 523.021 224.583 522.812 224.375C522.812 223.958 522.5 223.646 521.875 223.438C521.458 223.229 521.042 223.021 520.625 222.812C520.208 222.396 520.104 221.875 520.312 221.25C521.146 219.583 521.458 217.708 521.25 215.625C521.042 213.333 520.833 211.042 520.625 208.75C520.417 206.458 520.521 204.271 520.938 202.188C521.562 200.104 523.125 198.438 525.625 197.188C532.708 198.021 539.375 197.812 545.625 196.562C552.083 195.104 558.125 193.125 563.75 190.625C569.375 188.125 574.688 185.417 579.688 182.5C584.896 179.583 590 176.979 595 174.688C595.625 172.812 596.458 171.25 597.5 170C598.75 168.75 600 167.604 601.25 166.562C602.5 165.521 603.646 164.375 604.688 163.125C605.729 161.875 606.458 160.312 606.875 158.438C607.083 156.979 606.667 156.146 605.625 155.938C604.792 155.521 604.375 154.688 604.375 153.438L600.938 152.5C596.979 150.208 592.5 148.333 587.5 146.875C582.5 145.208 578.229 143.438 574.688 141.562C572.396 142.812 570.208 143.125 568.125 142.5C566.25 141.875 563.75 141.25 560.625 140.625C553.542 140.208 546.667 139.479 540 138.438C533.542 137.396 527.292 135.521 521.25 132.812C520.833 131.771 520.312 130.833 519.688 130C519.062 129.167 517.917 128.958 516.25 129.375C515 127.708 513.75 126.146 512.5 124.688C511.25 123.021 510.104 121.25 509.062 119.375C509.479 116.875 509.792 114.792 510 113.125C510.208 111.25 509.583 109.479 508.125 107.812C508.958 105.104 509.583 102.917 510 101.25C510.417 99.5833 510.417 97.3958 510 94.6875ZM818.75 209.062C817.5 212.604 815.625 216.25 813.125 220C810.833 223.542 808.021 226.771 804.688 229.688C801.562 232.396 798.021 234.688 794.062 236.562C790.104 238.438 785.938 239.479 781.562 239.688C778.854 239.062 776.979 238.333 775.938 237.5C775.104 236.875 774.167 236.25 773.125 235.625C772.5 235.208 771.875 234.896 771.25 234.688C770.833 234.271 770.417 233.958 770 233.75L766.25 232.188L767.5 228.125C767.917 226.458 767.812 225.208 767.188 224.375C766.562 223.333 765.312 221.979 763.438 220.312C762.812 219.688 762.188 219.062 761.562 218.438C760.938 217.812 760.417 217.188 760 216.562L754.688 210.625L763.125 208.438C768.333 206.979 771.771 205.104 773.438 202.812C775.312 200.521 776.042 196.667 775.625 191.25C771.458 190.417 767.917 190.312 765 190.938C762.292 191.562 759.479 192.292 756.562 193.125C752.812 194.167 748.958 195.104 745 195.938C741.25 196.562 737.083 196.875 732.5 196.875C730.833 196.875 729.271 196.875 727.812 196.875C726.354 196.667 724.792 196.458 723.125 196.25L720 195.625C719.583 193.333 719.167 192.083 718.75 191.875C718.333 191.458 717.917 191.042 717.5 190.625C716.458 189.583 715.312 188.229 714.062 186.562C713.021 184.688 712.812 182.396 713.438 179.688C712.396 177.812 711.771 175.938 711.562 174.062C710.312 176.562 709.375 179.167 708.75 181.875L707.5 185L704.375 185.625C703.958 185.833 703.646 186.354 703.438 187.188C703.229 187.812 703.125 188.333 703.125 188.75L701.562 194.062C701.146 194.479 700.729 194.896 700.312 195.312C699.896 195.521 699.479 195.833 699.062 196.25C698.646 198.125 698.125 200 697.5 201.875C696.875 203.75 696.25 205.521 695.625 207.188C694.583 209.896 693.646 212.604 692.812 215.312C692.188 217.812 691.979 220.312 692.188 222.812L690.938 226.25C689.896 227.5 688.75 228.542 687.5 229.375C686.25 230 685 230.625 683.75 231.25C683.333 231.667 682.708 232.083 681.875 232.5C681.25 232.708 680.729 232.917 680.312 233.125L679.375 236.562L675.625 237.188C673.333 237.604 671.667 237.917 670.625 238.125C669.792 238.333 668.75 238.438 667.5 238.438L664.375 238.125C662.083 236.25 660.312 234.792 659.062 233.75C657.812 232.5 656.354 231.354 654.688 230.312C652.812 227.812 651.771 225.938 651.562 224.688C651.354 223.438 651.146 222.292 650.938 221.25C650.521 220 650.312 218.958 650.312 218.125C650.104 217.292 649.792 216.667 649.375 216.25L645.312 212.5L648.75 209.688L649.062 204.375C653.229 193.75 657.604 183.542 662.188 173.75C666.979 163.958 671.875 153.958 676.875 143.75C678.542 140.417 680.104 137.083 681.562 133.75C683.229 130.417 684.896 127.083 686.562 123.75C686.354 123.125 686.25 122.396 686.25 121.562C686.25 120.729 686.458 119.792 686.875 118.75C689.167 115.208 691.042 112.083 692.5 109.375C693.958 106.458 695.417 103.542 696.875 100.625C698.542 97.0833 700.208 93.6458 701.875 90.3125C703.75 86.9792 706.042 83.5417 708.75 80L713.75 77.8125C714.375 77.6042 715.104 77.3958 715.938 77.1875C716.771 76.7708 717.708 76.5625 718.75 76.5625L723.438 77.1875C729.271 74.4792 734.375 70.7292 738.75 65.9375C743.125 60.9375 747.604 55 752.188 48.125L755.312 43.75L759.375 46.25C760.417 46.875 761.875 47.5 763.75 48.125C765.625 48.5417 767.604 49.0625 769.688 49.6875C773.438 50.5208 776.979 51.4583 780.312 52.5C783.646 53.5417 786.354 55.1042 788.438 57.1875C789.688 60.5208 790.417 63.0208 790.625 64.6875C790.833 66.3542 791.146 68.0208 791.562 69.6875C792.188 73.2292 792.708 76.7708 793.125 80.3125C793.75 83.8542 794.167 87.8125 794.375 92.1875C795.417 95.7292 796.25 99.2708 796.875 102.812C797.708 106.146 798.438 109.583 799.062 113.125C800.104 118.125 801.146 123.021 802.188 127.812C803.229 132.396 804.583 136.771 806.25 140.938C807.917 140.938 808.958 141.042 809.375 141.25C810.417 140.833 811.458 140.521 812.5 140.312C813.75 140.104 815.104 139.896 816.562 139.688L820 139.375L821.25 142.5C821.458 143.542 822.5 144.583 824.375 145.625C827.083 145.833 829.062 146.458 830.312 147.5C831.562 148.333 832.708 149.271 833.75 150.312C834.583 151.146 835.417 151.771 836.25 152.188L840.938 154.062L838.438 158.75C836.354 162.5 833.333 166.146 829.375 169.688C825.625 173.021 821.354 175.833 816.562 178.125C816.771 179.375 816.875 180.625 816.875 181.875C817.083 182.917 817.396 184.062 817.812 185.312C818.438 188.854 818.958 192.5 819.375 196.25C819.792 200 819.792 203.854 819.375 207.812L818.75 209.062ZM728.438 155C734.688 154.583 740.312 154.167 745.312 153.75C750.521 153.125 756.25 152.188 762.5 150.938C761.042 144.688 759.479 138.229 757.812 131.562C756.146 124.688 754.375 117.917 752.5 111.25L750.625 114.375C746.458 118.75 742.396 123.646 738.438 129.062C734.688 134.479 731.458 139.583 728.75 144.375C727.5 146.25 726.25 148.125 725 150C723.75 151.875 722.604 153.75 721.562 155.625C722.812 155.417 723.958 155.312 725 155.312C726.25 155.312 727.396 155.208 728.438 155ZM905.625 213.438C906.667 219.688 906.25 224.583 904.375 228.125C902.708 231.667 900.208 234.271 896.875 235.938C893.75 237.812 890.104 238.854 885.938 239.062C881.771 239.271 877.812 239.062 874.062 238.438C871.979 235.521 870.104 231.875 868.438 227.5C866.771 223.125 865.208 218.646 863.75 214.062C862.292 209.271 860.938 204.583 859.688 200C858.646 195.417 857.708 191.354 856.875 187.812C857.917 185.312 858.542 182.5 858.75 179.375C859.167 176.042 859.375 172.708 859.375 169.375C859.583 166.042 859.688 162.708 859.688 159.375C859.896 155.833 860.208 152.5 860.625 149.375C862.083 140.625 864.167 132.292 866.875 124.375C869.792 116.458 872.083 108.229 873.75 99.6875C874.167 97.8125 873.958 96.0417 873.125 94.375C872.5 92.7083 872.396 91.1458 872.812 89.6875C873.021 88.8542 873.646 88.3333 874.688 88.125C875.729 87.7083 876.354 86.9792 876.562 85.9375C877.188 83.6458 877.292 81.7708 876.875 80.3125C876.667 78.8542 877.083 77.0833 878.125 75C879.167 73.3333 880.417 70.9375 881.875 67.8125C883.542 64.4792 884.167 61.0417 883.75 57.5C885.625 56.25 887.396 54.7917 889.062 53.125C890.729 51.4583 892.396 50 894.062 48.75C895.938 47.2917 897.917 46.0417 900 45C902.292 43.9583 905 43.4375 908.125 43.4375C909.792 45.5208 910.833 47.8125 911.25 50.3125C911.875 52.8125 912.396 55.3125 912.812 57.8125C913.438 60.3125 914.271 62.7083 915.312 65C916.354 67.0833 918.125 68.75 920.625 70C920.625 71.6667 920.625 73.75 920.625 76.25C920.625 78.75 920.729 81.25 920.938 83.75C921.146 86.0417 921.562 88.2292 922.188 90.3125C923.021 92.1875 924.271 93.4375 925.938 94.0625C922.188 104.062 918.646 113.958 915.312 123.75C912.188 133.542 909.583 143.438 907.5 153.438C905.417 163.229 904.062 173.125 903.438 183.125C903.021 193.125 903.75 203.229 905.625 213.438ZM1071.88 235.938C1068.54 236.146 1064.38 236.042 1059.38 235.625C1054.58 235.208 1050.1 235.938 1045.94 237.812C1034.9 237.396 1023.65 236.042 1012.19 233.75C1000.73 231.458 990.208 228.646 980.625 225.312C978.542 223.021 976.458 220.938 974.375 219.062C972.292 216.979 969.479 215.521 965.938 214.688C960.938 210.729 956.875 205.938 953.75 200.312C950.625 194.479 948.125 188.333 946.25 181.875C944.375 175.417 943.125 168.854 942.5 162.188C941.875 155.312 941.667 148.75 941.875 142.5C945 133.125 949.375 125.104 955 118.438C960.833 111.562 966.771 104.792 972.812 98.125C975.521 96.875 977.5 95.625 978.75 94.375C980.208 92.9167 981.667 91.6667 983.125 90.625C984.792 89.375 986.354 88.2292 987.812 87.1875C989.479 85.9375 990.938 84.4792 992.188 82.8125C996.562 81.7708 1000.31 80.3125 1003.44 78.4375C1006.77 76.3542 1010 74.2708 1013.12 72.1875C1016.25 69.8958 1019.48 67.8125 1022.81 65.9375C1026.15 64.0625 1030 62.6042 1034.38 61.5625C1036.04 59.6875 1038.02 58.2292 1040.31 57.1875C1042.6 55.9375 1044.9 54.7917 1047.19 53.75C1049.69 52.5 1051.98 51.25 1054.06 50C1056.35 48.75 1058.12 47.0833 1059.38 45C1060.42 46.6667 1061.88 47.2917 1063.75 46.875C1065.62 46.25 1067.4 45.625 1069.06 45C1070.1 44.7917 1070.94 45 1071.56 45.625C1072.4 46.25 1073.12 46.875 1073.75 47.5C1074.38 48.125 1074.9 48.5417 1075.31 48.75C1075.94 48.75 1076.46 48.2292 1076.88 47.1875C1077.92 47.1875 1078.23 47.7083 1077.81 48.75C1077.4 49.7917 1077.08 50.5208 1076.88 50.9375C1078.54 50.7292 1079.9 51.1458 1080.94 52.1875C1082.19 53.0208 1084.06 53.5417 1086.56 53.75C1087.4 54.7917 1087.6 55.625 1087.19 56.25C1086.77 56.6667 1086.56 57.5 1086.56 58.75C1092.81 60.625 1096.77 63.6458 1098.44 67.8125C1100.1 71.7708 1100.21 75.9375 1098.75 80.3125C1097.29 84.6875 1094.69 88.75 1090.94 92.5C1087.19 96.25 1083.12 98.75 1078.75 100C1068.75 102.708 1059.27 105.729 1050.31 109.062C1041.56 112.188 1034.38 116.875 1028.75 123.125C1023.75 124.583 1019.27 126.562 1015.31 129.062C1011.56 131.354 1007.92 134.062 1004.38 137.188C1001.04 140.104 997.812 143.229 994.688 146.562C991.771 149.688 988.646 152.812 985.312 155.938C985.521 158.854 985 161.146 983.75 162.812C982.708 164.271 981.667 165.833 980.625 167.5C981.042 170.625 981.771 173.438 982.812 175.938C983.854 178.229 985 180.521 986.25 182.812C1000 186.979 1014.58 189.583 1030 190.625C1045.62 191.667 1061.25 192.292 1076.88 192.5C1078.33 194.583 1080 196.562 1081.88 198.438C1083.96 200.104 1085.83 201.979 1087.5 204.062C1089.17 205.938 1090.52 208.125 1091.56 210.625C1092.6 212.917 1092.81 215.833 1092.19 219.375C1089.27 222.5 1086.04 225.417 1082.5 228.125C1078.96 230.625 1075.42 233.229 1071.88 235.938Z" fill="#C08A58"/>
</svg>
